<?xml version="1.0" standalone="no"?>
<!DOCTYPE svg PUBLIC "-//W3C//DTD SVG 20010904//EN"
 "http://www.w3.org/TR/2001/REC-SVG-20010904/DTD/svg10.dtd">
<svg version="1.0" xmlns="http://www.w3.org/2000/svg"
 width="238.000000pt" height="238.000000pt" viewBox="0 0 238.000000 238.000000"
 preserveAspectRatio="xMidYMid meet">

<g transform="translate(0.000000,238.000000) scale(0.100000,-0.100000)"
fill="#000000" stroke="none">
<path d="M1065 2363 c-80 -10 -198 -38 -275 -65 -74 -26 -205 -90 -220 -107
-3 -3 -17 -13 -31 -21 -44 -25 -89 -62 -166 -135 -74 -70 -173 -193 -173 -214
0 -6 -4 -11 -9 -11 -12 0 -95 -173 -120 -250 -53 -166 -72 -346 -51 -506 12
-101 53 -258 72 -281 6 -7 8 -13 4 -13 -4 0 0 -13 9 -30 8 -16 16 -33 16 -37
1 -13 62 -118 71 -121 4 -2 8 -9 8 -14 0 -20 82 -122 166 -206 45 -45 85 -82
89 -82 3 0 11 -5 18 -10 7 -6 23 -20 37 -31 30 -25 126 -81 136 -79 4 1 10 -3
13 -8 3 -5 34 -21 68 -36 163 -68 358 -103 522 -93 105 6 249 33 269 49 6 6
12 8 12 5 0 -3 30 5 68 19 37 14 79 30 95 36 15 5 27 15 27 21 0 6 3 7 7 4 5
-6 69 27 83 42 3 4 17 12 33 20 15 8 27 18 27 23 0 4 5 8 12 8 6 0 18 6 27 14
24 21 202 199 215 216 28 34 86 128 86 139 0 6 4 11 9 11 8 0 61 109 65 134 1
6 4 16 8 21 16 26 51 160 63 245 17 111 19 219 4 310 -5 36 -12 80 -15 99 -10
69 -91 291 -106 291 -4 0 -7 4 -5 8 3 11 -73 139 -100 169 -13 13 -23 26 -23
29 0 2 -37 42 -82 87 -85 86 -186 167 -206 167 -7 0 -12 5 -12 11 0 5 -4 7
-10 4 -5 -3 -10 -3 -10 2 0 4 -23 21 -50 36 -28 16 -50 25 -50 21 0 -3 -12 1
-26 10 -43 29 -200 76 -302 91 -90 14 -226 17 -297 8z m-75 -738 c0 -83 -4
-135 -10 -135 -6 0 -10 52 -10 135 0 83 4 135 10 135 6 0 10 -52 10 -135z m91
110 c-1 -15 -24 -12 -29 3 -3 9 2 13 12 10 10 -1 17 -7 17 -13z m330 0 c-1
-15 -24 -12 -29 3 -3 9 2 13 12 10 10 -1 17 -7 17 -13z m-505 -77 c19 -21 19
-21 -1 -13 -11 5 -38 9 -59 9 -34 1 -42 -3 -58 -30 -42 -71 44 -152 104 -97
10 9 21 13 26 9 4 -4 -4 -17 -18 -28 -45 -36 -129 -3 -144 57 -21 83 96 155
150 93z m174 -73 c0 -57 -4 -95 -10 -95 -6 0 -10 38 -10 95 0 57 4 95 10 95 6
0 10 -38 10 -95z m90 79 c0 -14 2 -14 22 0 33 23 75 20 103 -9 22 -21 25 -33
25 -95 0 -94 -17 -90 -22 6 -4 83 -11 94 -65 94 -46 0 -63 -30 -63 -107 0 -35
-4 -63 -10 -63 -6 0 -10 38 -10 95 0 57 4 95 10 95 6 0 10 -7 10 -16z m240
-79 c0 -57 -4 -95 -10 -95 -6 0 -10 38 -10 95 0 57 4 95 10 95 6 0 10 -38 10
-95z m200 80 c16 -19 5 -34 -12 -17 -17 17 -74 15 -92 -4 -63 -62 9 -165 85
-122 22 13 29 14 29 4 0 -24 -54 -39 -94 -26 -103 34 -77 180 32 180 23 0 45
-6 52 -15z m-555 -311 c55 -26 78 -58 83 -117 6 -78 -19 -118 -164 -262 l-126
-125 161 0 c154 0 161 -1 161 -20 0 -19 -7 -20 -195 -20 -146 0 -195 3 -195
12 0 7 65 78 145 158 173 174 197 219 160 290 -21 40 -63 60 -129 60 -60 0
-98 -13 -134 -44 -20 -18 -24 -18 -37 -5 -14 13 -13 18 8 37 52 49 194 69 262
36z m565 -3 c0 -11 -53 -137 -117 -280 -106 -234 -120 -261 -142 -261 -14 0
-21 5 -18 13 3 6 55 121 116 255 61 133 111 245 111 248 0 2 -69 3 -152 2
l-153 -3 -1 -40 c-2 -62 -3 -65 -24 -65 -18 0 -20 7 -20 68 0 38 3 72 7 75 3
4 93 7 200 7 183 0 193 -1 193 -19z m-1010 -698 c0 -8 -12 -26 -26 -40 l-26
-26 -26 27 -26 26 34 29 c32 27 36 28 53 14 9 -9 17 -22 17 -30z m1194 23 c-3
-7 6 -21 20 -30 15 -9 26 -21 26 -27 0 -5 -15 1 -33 15 -27 21 -36 23 -48 13
-7 -6 -3 0 10 16 27 30 33 33 25 13z m-66 -66 c-16 -25 -5 -35 21 -18 16 10
23 10 33 0 14 -14 1 -43 -23 -50 -9 -3 -8 2 5 16 l19 22 -38 -3 c-42 -2 -54
12 -30 37 22 22 28 20 13 -4z m-1068 -6 c0 -4 -5 -24 -12 -45 -12 -42 -28 -52
-28 -19 0 18 -10 25 -32 21 -5 0 -8 4 -8 9 0 6 2 10 4 10 2 0 12 3 21 6 9 4
15 2 13 -4 -2 -5 2 -9 7 -8 6 0 11 6 11 11 1 6 2 13 3 18 1 9 21 10 21 1z
m1007 -42 c-24 -27 -21 -35 10 -27 27 6 27 6 10 -13 -11 -12 -14 -22 -8 -26 5
-4 12 -2 16 4 3 5 11 10 18 10 6 0 4 -7 -6 -17 -16 -17 -19 -16 -50 15 l-32
33 25 19 c32 25 38 25 17 2z m-929 -24 c20 -20 14 -33 -7 -14 -22 20 -51 12
-51 -15 0 -10 10 -25 22 -33 14 -10 17 -16 9 -16 -17 0 -51 29 -51 43 0 17 32
47 50 47 9 0 21 -5 28 -12z m885 -48 c22 -26 22 -47 -2 -60 -30 -16 -36 -13
-57 25 -17 31 -17 37 -4 45 24 15 44 12 63 -10z m-839 -5 c-4 -11 1 -15 17
-16 13 0 18 -3 12 -6 -7 -2 -14 -19 -14 -36 -2 -31 -2 -31 -6 -4 -5 29 -21 35
-41 15 -19 -19 -14 1 9 33 22 32 32 37 23 14z m158 -53 c-7 -2 -19 -20 -27
-39 -19 -45 -29 -38 -13 7 9 26 9 35 0 38 -7 2 -12 8 -12 12 0 5 15 4 32 -2
18 -6 27 -13 20 -16z m544 1 c3 -10 10 -26 15 -35 8 -15 5 -17 -23 -11 -26 5
-30 4 -25 -10 4 -10 2 -17 -3 -17 -12 0 -33 67 -25 80 10 17 55 12 61 -7z
m-87 -60 c1 -12 -7 -27 -18 -32 -26 -14 -49 6 -57 49 -4 26 -3 31 5 20 6 -8
11 -25 11 -37 0 -16 6 -23 20 -23 17 0 20 7 21 43 0 32 2 37 9 22 5 -11 9 -30
9 -42z m-361 35 c17 -17 15 -53 -3 -68 -38 -31 -96 27 -65 65 15 18 51 20 68
3z m236 -11 c12 -9 17 -23 14 -42 -3 -26 -8 -30 -35 -33 -18 -2 -33 1 -33 5 0
5 12 9 28 8 22 0 27 4 27 25 0 31 -33 40 -52 14 -10 -14 -13 -15 -13 -3 0 18
19 39 35 39 6 0 19 -6 29 -13z m-110 -19 c4 12 12 22 17 22 14 0 11 -16 -6
-30 -8 -7 -15 -21 -15 -31 0 -26 -17 -24 -23 4 -2 12 -8 31 -12 42 -6 17 -3
16 13 -4 l20 -24 6 21z"/>
<path d="M565 670 c-8 -13 3 -30 21 -30 18 0 18 14 0 29 -10 8 -16 9 -21 1z"/>
<path d="M530 641 c0 -12 29 -35 36 -28 11 10 -5 37 -21 37 -8 0 -15 -4 -15
-9z"/>
<path d="M1575 491 c-10 -18 17 -23 33 -7 15 15 15 16 -5 16 -12 0 -24 -4 -28
-9z"/>
<path d="M1601 461 c-8 -5 -9 -11 -3 -15 13 -8 42 3 42 15 0 11 -21 11 -39 0z"/>
<path d="M1446 432 c-9 -14 12 -35 28 -29 23 9 20 37 -3 37 -11 0 -22 -4 -25
-8z"/>
<path d="M991 396 c-26 -31 14 -71 45 -45 8 7 14 22 12 33 -4 26 -40 33 -57
12z"/>
</g>
</svg>
